<svg width="17" height="18" viewBox="0 0 17 18" fill="none" xmlns="http://www.w3.org/2000/svg">
<path d="M9.99982 5.57C9.20982 5.57 8.56982 6.21 8.56982 7C8.56982 7.79 9.20982 8.43 9.99982 8.43C10.7898 8.43 11.4298 7.79 11.4298 7C11.4298 6.21 10.7898 5.57 9.99982 5.57Z" fill="white"/>
<path d="M9.99982 0C6.24982 0 3.19982 2.94 3.01982 6.64L1.09982 9.2C0.849824 9.53 1.08982 10 1.49982 10H2.99982V13C2.99982 14.1 3.89982 15 4.99982 15H5.99982V18H12.9998V13.32C15.3598 12.2 16.9998 9.79 16.9998 7C16.9998 3.13 13.8698 0 9.99982 0ZM12.9998 7C12.9998 7.13 12.9898 7.26 12.9798 7.39L13.8098 8.05C13.8898 8.11 13.9098 8.21 13.8598 8.3L13.0598 9.69C13.0098 9.78 12.8998 9.81 12.8198 9.78L11.8298 9.38C11.6198 9.54 11.3998 9.67 11.1598 9.77L10.9998 10.83C10.9898 10.93 10.8998 11 10.7998 11H9.19982C9.09982 11 9.01982 10.93 8.99982 10.83L8.84982 9.77C8.59982 9.67 8.37982 9.54 8.16982 9.38L7.17982 9.78C7.08982 9.81 6.97982 9.78 6.92982 9.69L6.12982 8.3C6.07982 8.22 6.09982 8.11 6.17982 8.05L7.01982 7.39C7.00982 7.26 6.99982 7.13 6.99982 7C6.99982 6.87 7.01982 6.73 7.03982 6.61L6.18982 5.95C6.10982 5.89 6.08982 5.79 6.13982 5.69L6.93982 4.31C6.98982 4.22 7.08982 4.19 7.17982 4.22L8.17982 4.62C8.37982 4.47 8.60982 4.33 8.84982 4.23L8.99982 3.17C9.01982 3.07 9.09982 3 9.19982 3H10.7998C10.8998 3 10.9798 3.07 10.9998 3.17L11.1498 4.23C11.3898 4.33 11.6098 4.46 11.8198 4.62L12.8198 4.22C12.9098 4.19 13.0198 4.22 13.0598 4.31L13.8598 5.69C13.9098 5.78 13.8898 5.89 13.8098 5.95L12.9598 6.61C12.9898 6.73 12.9998 6.86 12.9998 7Z" fill="white"/>
</svg>
