<svg width="64" height="64" viewBox="0 0 64 64" fill="none" xmlns="http://www.w3.org/2000/svg">
<g clip-path="url(#clip0_9_992)">
<path d="M31.9999 40.5333C36.7127 40.5333 40.5332 36.7128 40.5332 32C40.5332 27.2872 36.7127 23.4667 31.9999 23.4667C27.2871 23.4667 23.4666 27.2872 23.4666 32C23.4666 36.7128 27.2871 40.5333 31.9999 40.5333Z" fill="#673AB7"/>
<path d="M23.9999 5.33333L19.1199 10.6667H10.6666C7.73325 10.6667 5.33325 13.0667 5.33325 16V48C5.33325 50.9333 7.73325 53.3333 10.6666 53.3333H53.3333C56.2666 53.3333 58.6666 50.9333 58.6666 48V16C58.6666 13.0667 56.2666 10.6667 53.3333 10.6667H44.8799L39.9999 5.33333H23.9999ZM31.9999 45.3333C24.6399 45.3333 18.6666 39.36 18.6666 32C18.6666 24.64 24.6399 18.6667 31.9999 18.6667C39.3599 18.6667 45.3333 24.64 45.3333 32C45.3333 39.36 39.3599 45.3333 31.9999 45.3333Z" fill="#673AB7"/>
</g>
<defs>
<clipPath id="clip0_9_992">
<rect width="64" height="64" fill="white"/>
</clipPath>
</defs>
</svg>
